# xmcd
#
# Track frame offsets:
# 183
# 26003
# 39930
#
# Disc length: 851 seconds
#
# Revision: 0
# Processed by: cddbd v1.5PL3 Copyright (c) Steve Scherf et al.
# Submitted via: Audion 3.0.2 (http://www.panic.com/audion/)
#
DISCID=19035103
DTITLE=Lonnie Gordon - Gonna Catch You
DYEAR=1900
DGENRE=
TTITLE0=Gonna Catch You (uno mix)
TTITLE1=Gonna Catch You (acappella/sax mix)
TTITLE2=Gonna Catch You (senza voce)
EXTD=
EXTT0=
EXTT1=
EXTT2=
PLAYORDER=
